# xmcd CD database file
#
# Track frame offsets:
#	150
#	19319
#	36871
#	55160
#	71140
#	92828
#	108448
#	126155
#	142004
#	158705
#	178023
#
# Disc length: 2614 seconds
#
# Revision: 4
# Processed by: cddbd v1.5PL3 Copyright (c) Steve Scherf et al.
# Submitted via: jetAudio 5
#
DISCID=9c0a340b
DTITLE=Gianni Morandi - L'amore ci cambia la vita
DYEAR=1900
DGENRE=
TTITLE0=L'amore ci cambia la vita
TTITLE1=L'amante
TTITLE2=Una vita normale
TTITLE3=Ricominciamo da qui
TTITLE4=Abbracciami
TTITLE5=Questo grande pasticcio
TTITLE6=Dimmi adesso con chi sei
TTITLE7=Giallo come un limone
TTITLE8=Non e' cosi'
TTITLE9=Americana
TTITLE10=Il mio amico
EXTD=(P) and (C) 2002 Sony Music Entertainment (Italy) S.p.A.
EXTT0=
EXTT1=
EXTT2=
EXTT3=
EXTT4=
EXTT5=
EXTT6=
EXTT7=
EXTT8=
EXTT9=
EXTT10=
PLAYORDER=
